{"accessors":[{"bufferView":2,"componentType":5126,"count":2048,"max":[1,1,1],"min":[-1,-1,-1],"type":"VEC3"},{"bufferView":2,"byteOffset":24576,"componentType":5126,"count":2048,"max":[1,1,1],"min":[-1,-1,-1],"type":"VEC3"},{"bufferView":1,"componentType":5126,"count":2048,"max":[1.3984600305557251,0.98904997110366821],"min":[0.0001900000061141327,0.010950000025331974],"type":"VEC2"},{"bufferView":3,"componentType":5126,"count":2048,"max":[0.91577798128128052,0.98114484548568726,0.45030423998832703,1],"min":[-0.91577941179275513,-0.9842911958694458,-0.44812259078025818,1],"type":"VEC4"},{"bufferView":0,"componentType":5125,"count":11904,"max":[2047],"min":[0],"type":"SCALAR"}],"asset":{"generator":"Sketchfab (OSG glTF plugin)","version":"2.0"},"bufferViews":[{"buffer":0,"byteLength":47616,"byteOffset":0,"name":"ScalarBufferView","target":34962},{"buffer":0,"byteLength":16384,"byteOffset":47616,"byteStride":8,"name":"Vec2BufferView","target":34962},{"buffer":0,"byteLength":49152,"byteOffset":64000,"byteStride":12,"name":"Vec3BufferView","target":34962},{"buffer":0,"byteLength":32768,"byteOffset":113152,"byteStride":16,"name":"Vec4BufferView","target":34962}],"buffers":[{"byteLength":145920,"uri":"scene.bin"}],"images":[{"uri":"textures\/jupiter_baseColor.jpeg"},{"uri":"textures\/jupiter_metallicRoughness.png"},{"uri":"textures\/jupiter_emissive.jpeg"}],"materials":[{"doubleSided":true,"emissiveFactor":[0.90000000000000002,0.90000000000000002,0.90000000000000002],"emissiveTexture":{"index":2,"texCoord":0},"name":"jupiter","occlusionTexture":{"index":1,"strength":1,"texCoord":0},"pbrMetallicRoughness":{"baseColorFactor":[1,1,1,1],"baseColorTexture":{"index":0,"texCoord":0},"metallicFactor":0.14000000000000001,"metallicRoughnessTexture":{"index":1,"texCoord":0},"roughnessFactor":0}}],"meshes":[{"name":"GeodeSphere","primitives":[{"attributes":{"NORMAL":1,"POSITION":0,"TANGENT":3,"TEXCOORD_0":2},"indices":4,"material":0,"mode":4}]}],"nodes":[{"children":[1],"name":"RootNode (gltf orientation matrix)","rotation":[-0.70710678118654746,-0,-0,0.70710678118654757]},{"children":[2],"name":"RootNode (model correction matrix)"},{"children":[3,5],"name":"Root"},{"children":[4],"matrix":[-0.29086000000000006,0.95517000000000007,-0.05519000000000001,0,-0.77110000000000001,-0.19988000000000003,0.60452000000000006,0,0.56639000000000006,0.21839000000000003,0.7946700000000001,0,4.0762500000000008,1.00545,5.9038600000000008,1],"name":"Lamp"},{"name":"Lamp"},{"children":[6],"name":"Sphere"},{"mesh":0,"name":"GeodeSphere"}],"samplers":[{"magFilter":9729,"minFilter":9987,"wrapS":10497,"wrapT":10497}],"scene":0,"scenes":[{"name":"OSG_Scene","nodes":[0]}],"textures":[{"sampler":0,"source":0},{"sampler":0,"source":1},{"sampler":0,"source":2}]}
